# Tiled2Unity generated file. Do not modify by hand.
# Wavefront file for 'Platformer_mesh_0002.obj'

# Vertices (Count = 144)
v -1420 -639 0
v -1491 -639 0
v -1491 -568 0
v -1420 -568 0
v -1491 -639 0
v -1562 -639 0
v -1562 -568 0
v -1491 -568 0
v -1562 -639 0
v -1633 -639 0
v -1633 -568 0
v -1562 -568 0
v -1633 -639 0
v -1704 -639 0
v -1704 -568 0
v -1633 -568 0
v -1704 -639 0
v -1775 -639 0
v -1775 -568 0
v -1704 -568 0
v -1775 -639 0
v -1846 -639 0
v -1846 -568 0
v -1775 -568 0
v -1846 -639 0
v -1917 -639 0
v -1917 -568 0
v -1846 -568 0
v -1917 -639 0
v -1988 -639 0
v -1988 -568 0
v -1917 -568 0
v -1988 -639 0
v -2059 -639 0
v -2059 -568 0
v -1988 -568 0
v -1420 -710 0
v -1491 -710 0
v -1491 -639 0
v -1420 -639 0
v -1491 -710 0
v -1562 -710 0
v -1562 -639 0
v -1491 -639 0
v -1562 -710 0
v -1633 -710 0
v -1633 -639 0
v -1562 -639 0
v -1633 -710 0
v -1704 -710 0
v -1704 -639 0
v -1633 -639 0
v -1704 -710 0
v -1775 -710 0
v -1775 -639 0
v -1704 -639 0
v -1775 -710 0
v -1846 -710 0
v -1846 -639 0
v -1775 -639 0
v -1846 -710 0
v -1917 -710 0
v -1917 -639 0
v -1846 -639 0
v -1917 -710 0
v -1988 -710 0
v -1988 -639 0
v -1917 -639 0
v -1988 -710 0
v -2059 -710 0
v -2059 -639 0
v -1988 -639 0
v -1420 -781 0
v -1491 -781 0
v -1491 -710 0
v -1420 -710 0
v -1491 -781 0
v -1562 -781 0
v -1562 -710 0
v -1491 -710 0
v -1562 -781 0
v -1633 -781 0
v -1633 -710 0
v -1562 -710 0
v -1633 -781 0
v -1704 -781 0
v -1704 -710 0
v -1633 -710 0
v -1704 -781 0
v -1775 -781 0
v -1775 -710 0
v -1704 -710 0
v -1775 -781 0
v -1846 -781 0
v -1846 -710 0
v -1775 -710 0
v -1846 -781 0
v -1917 -781 0
v -1917 -710 0
v -1846 -710 0
v -1917 -781 0
v -1988 -781 0
v -1988 -710 0
v -1917 -710 0
v -1988 -781 0
v -2059 -781 0
v -2059 -710 0
v -1988 -710 0
v -1420 -852 0
v -1491 -852 0
v -1491 -781 0
v -1420 -781 0
v -1491 -852 0
v -1562 -852 0
v -1562 -781 0
v -1491 -781 0
v -1562 -852 0
v -1633 -852 0
v -1633 -781 0
v -1562 -781 0
v -1633 -852 0
v -1704 -852 0
v -1704 -781 0
v -1633 -781 0
v -1704 -852 0
v -1775 -852 0
v -1775 -781 0
v -1704 -781 0
v -1775 -852 0
v -1846 -852 0
v -1846 -781 0
v -1775 -781 0
v -1846 -852 0
v -1917 -852 0
v -1917 -781 0
v -1846 -781 0
v -1917 -852 0
v -1988 -852 0
v -1988 -781 0
v -1917 -781 0
v -1988 -852 0
v -2059 -852 0
v -2059 -781 0
v -1988 -781 0

# Texture cooridinates (Count = 8)
vt 0.4726477 0.3087607
vt 0.5503283 0.3087607
vt 0.5503283 0.3846154
vt 0.4726477 0.3846154
vt 0.5514223 0.6933761
vt 0.6291028 0.6933761
vt 0.6291028 0.7692308
vt 0.5514223 0.7692308

# Normal
vn 0 0 -1

# Mesh description
g Platformer_mesh_0002

# Faces
f 1/1/1 2/2/1 3/3/1 4/4/1
f 5/1/1 6/2/1 7/3/1 8/4/1
f 9/1/1 10/2/1 11/3/1 12/4/1
f 13/1/1 14/2/1 15/3/1 16/4/1
f 17/1/1 18/2/1 19/3/1 20/4/1
f 21/1/1 22/2/1 23/3/1 24/4/1
f 25/1/1 26/2/1 27/3/1 28/4/1
f 29/1/1 30/2/1 31/3/1 32/4/1
f 33/1/1 34/2/1 35/3/1 36/4/1
f 37/5/1 38/6/1 39/7/1 40/8/1
f 41/5/1 42/6/1 43/7/1 44/8/1
f 45/5/1 46/6/1 47/7/1 48/8/1
f 49/5/1 50/6/1 51/7/1 52/8/1
f 53/5/1 54/6/1 55/7/1 56/8/1
f 57/5/1 58/6/1 59/7/1 60/8/1
f 61/5/1 62/6/1 63/7/1 64/8/1
f 65/5/1 66/6/1 67/7/1 68/8/1
f 69/5/1 70/6/1 71/7/1 72/8/1
f 73/5/1 74/6/1 75/7/1 76/8/1
f 77/5/1 78/6/1 79/7/1 80/8/1
f 81/5/1 82/6/1 83/7/1 84/8/1
f 85/5/1 86/6/1 87/7/1 88/8/1
f 89/5/1 90/6/1 91/7/1 92/8/1
f 93/5/1 94/6/1 95/7/1 96/8/1
f 97/5/1 98/6/1 99/7/1 100/8/1
f 101/5/1 102/6/1 103/7/1 104/8/1
f 105/5/1 106/6/1 107/7/1 108/8/1
f 109/5/1 110/6/1 111/7/1 112/8/1
f 113/5/1 114/6/1 115/7/1 116/8/1
f 117/5/1 118/6/1 119/7/1 120/8/1
f 121/5/1 122/6/1 123/7/1 124/8/1
f 125/5/1 126/6/1 127/7/1 128/8/1
f 129/5/1 130/6/1 131/7/1 132/8/1
f 133/5/1 134/6/1 135/7/1 136/8/1
f 137/5/1 138/6/1 139/7/1 140/8/1
f 141/5/1 142/6/1 143/7/1 144/8/1

